<svg version="1.1" id="Layer_1" xmlns="http://www.w3.org/2000/svg" xmlns:xlink="http://www.w3.org/1999/xlink" x="0px" y="0px" style="enable-background:new 0 0 306.78 306.35;" xml:space="preserve" viewBox="110.14 101.23 86.5 103.87"> <g> 	<path d="M196.57,152.5c-0.15-8.83-7.46-16.17-16.26-16.54c-0.79-0.03-0.99-0.23-1-1.02c-0.03-3.78,0.29-7.58-0.23-11.34 &#9;&#9;c-1.87-13.62-14.16-23.41-27.91-22.28c-11.42,0.94-20.94,9.44-23.22,20.74c-0.44,2.19,0.84,4.34,2.97,4.99 &#9;&#9;c2.58,0.78,4.93-0.74,5.6-3.63c1.82-7.78,8.38-13.2,16.29-13.46c9.62-0.32,17.63,7.24,17.83,16.86c0.05,2.63-0.03,5.27,0.04,7.91 &#9;&#9;c0.03,0.98-0.23,1.22-1.21,1.22c-13.78-0.04-27.57-0.02-41.35-0.03c-1.42,0-2.84,0.04-4.23,0.35c-8.17,1.82-13.7,8.61-13.73,17.01 &#9;&#9;c-0.04,11.49-0.01,22.98,0,34.46c0,0.81,0.02,1.63,0.15,2.42c1.48,9.02,8.47,14.94,17.61,14.94c8.48,0,16.96,0,25.44,0 &#9;&#9;c8.55,0,17.1,0,25.64,0c1.19,0,2.36-0.07,3.53-0.31c8.34-1.69,13.99-8.51,14.07-17.02c0.04-3.95,0.01-7.91,0.01-11.86 &#9;&#9;C196.61,168.11,196.7,160.31,196.57,152.5z M187.99,187.39c-0.01,5.37-3.68,9.03-9.04,9.04c-8.55,0.02-17.09,0-25.64,0 &#9;&#9;c-8.55,0-17.09,0.01-25.64-0.01c-4.33-0.01-7.68-2.62-8.66-6.66c-0.19-0.79-0.25-1.6-0.25-2.41c0-11.22-0.01-22.43,0-33.65 &#9;&#9;c0.01-5.47,3.69-9.17,9.14-9.17c16.99-0.01,33.98-0.01,50.97,0c5.4,0,9.1,3.7,9.11,9.1C188.01,164.89,188.01,176.14,187.99,187.39z &#9;&#9;"/> 	<path d="M154.38,153.23c-5.98-0.43-11.52,3.28-13.33,8.93c-1.84,5.76,0.4,12.06,5.71,15.02c1.88,1.05,2.94,2.02,2.33,4.2 &#9;&#9;c0,0.71-0.02,1.42,0,2.13c0.07,2.45,1.95,4.32,4.32,4.31c2.37-0.01,4.23-1.88,4.28-4.34c0.03-1.35,0.06-2.7-0.01-4.05 &#9;&#9;c-0.05-0.81,0.24-1.15,0.97-1.47c5.5-2.4,8.56-8.22,7.5-14.16C165.12,158.09,160.18,153.65,154.38,153.23z M153.44,170.48 &#9;&#9;c-2.41,0.02-4.32-1.83-4.35-4.22c-0.03-2.46,1.85-4.38,4.29-4.38c2.41,0,4.29,1.86,4.3,4.27 &#9;&#9;C157.69,168.56,155.83,170.45,153.44,170.48z"/> </g> </svg>