<svg version="1.1" id="Layer_1" xmlns="http://www.w3.org/2000/svg" xmlns:xlink="http://www.w3.org/1999/xlink" x="0px" y="0px" style="enable-background:new 0 0 306.78 306.35;" xml:space="preserve" viewBox="100.87 101.25 105.06 103.85"> <g> 	<path d="M202.66,184.91c-5.82-6.02-11.72-11.95-17.77-17.74c-3.54-3.39-7.88-4.12-12.51-2.39c-0.73,0.27-1.12,0.13-1.61-0.38 &#9;&#9;c-1.43-1.48-2.86-2.97-4.38-4.36c-0.73-0.67-0.67-1.09-0.1-1.83c4.55-6,6.97-12.77,7.27-21.6c-0.05-9.46-3.74-18.74-11.39-26.35 &#9;&#9;c-4.43-4.41-9.68-7.48-15.81-8.91c-1.9-0.45-3.69,0.6-4.48,2.43c-0.75,1.73-0.29,3.33,1.28,4.57c0.71,0.56,1.51,0.88,2.36,1.14 &#9;&#9;c13.86,4.22,22.3,18.51,19.35,32.73c-3.02,14.56-16.78,24.29-31.57,22.33c-12.42-1.64-23.28-12.77-24.26-25.28 &#9;&#9;c-0.87-11.03,3.5-19.78,12.44-26.26c0.95-0.69,2.01-1.24,2.71-2.23c0.83-1.17,1.14-2.44,0.54-3.8c-0.62-1.38-1.76-2.09-3.23-2.3 &#9;&#9;c-1.27-0.17-2.38,0.21-3.46,0.87c-14.79,9.09-21.02,27.66-14.75,44.08c8.52,22.32,36.67,30.35,55.75,15.88 &#9;&#9;c0.61-0.46,0.95-0.55,1.52,0.06c1.47,1.56,2.99,3.07,4.55,4.55c0.51,0.48,0.54,0.85,0.32,1.51c-1.63,4.78-0.89,9.21,2.63,12.85 &#9;&#9;c5.7,5.9,11.51,11.69,17.4,17.4c4.62,4.49,12.47,4.21,17.12-0.42C206.94,197.13,207.1,189.5,202.66,184.91z M196.75,195.74 &#9;&#9;c-1.71,1.71-4.27,1.77-5.98,0.07c-5.63-5.6-11.24-11.23-16.85-16.85c-1.26-1.26-1.59-2.75-0.87-4.38c0.69-1.59,1.9-2.52,3.69-2.57 &#9;&#9;c1.12-0.03,2.06,0.4,2.83,1.18c5.68,5.67,11.37,11.33,17.03,17.04C198.27,191.92,198.27,194.22,196.75,195.74z"/> </g> </svg>